<?xml version="1.0"?>
<svg xmlns="http://www.w3.org/2000/svg" width="45" height="20" viewBox="0 0 45 20">
<title>Hundo</title>
<g id="Layer_2" data-name="Layer 2">
  <g id="text">{{}}</g>
  <path id="path34" d="M13.75,20a2.5,2.5,0,0,1-.88-4.84A103.67,103.67,0,0,1,38.54,10,2.5,2.5,0,0,1,39,15a100.9,100.9,0,0,0-24.33,4.85,2.48,2.48,0,0,1-.88.16" fill="#bb1a34"/>
  <path id="path38" d="M2.5,12.5a2.5,2.5,0,0,1-.9-4.83C2.28,7.41,18.5,1.26,42.37,0a2.5,2.5,0,0,1,.26,5C19.6,6.21,3.56,12.27,3.4,12.33a2.39,2.39,0,0,1-.9.17" fill="#bb1a34"/>
</g>
</svg>
